<?xml version="1.0" standalone="no"?><!DOCTYPE svg PUBLIC "-//W3C//DTD SVG 1.1//EN" "http://www.w3.org/Graphics/SVG/1.1/DTD/svg11.dtd"><svg t="1544520970374" class="icon" style="" viewBox="0 0 1024 1024" version="1.1" xmlns="http://www.w3.org/2000/svg" p-id="1003" xmlns:xlink="http://www.w3.org/1999/xlink" width="200" height="200"><defs><style type="text/css"></style></defs><path d="M273.154048 1007.742976v-170.10688h111.77984v168.79616l-56.836096-48.177152-54.943744 49.487872z m54.35392-89.075712L355.127296 942.08v-74.637312H302.964736v73.326592l24.543232-22.102016z" fill="#ED743B" p-id="1004"></path><path d="M871.804928 867.446784H153.923584V10.457088h717.881344v856.989696z m-688.074752-29.810688h658.264064V40.267776H183.730176v797.36832z" fill="#429DD7" p-id="1005"></path><path d="M660.660224 25.362432h19.873792V852.54144h-19.873792z" fill="#429DD7" p-id="1006"></path><path d="M674.594816 434.634752h-253.628416l126.81216-219.652096 126.816256 219.652096z m-219.209728-19.873792h184.79104l-92.397568-160.034816-92.393472 160.034816z" fill="#429DD7" p-id="1007"></path><path d="M443.916288 434.634752H311.365632l106.307584-184.13568 66.285568 114.806784-40.042496 69.328896zM345.78432 414.76096h86.663168l28.565504-49.4592-43.339776-75.0592-71.888896 124.5184zM328.577024 515.46112h342.024192v19.873792H328.577024zM417.673216 594.948096h168.968192v19.873792h-168.968192z" fill="#429DD7" p-id="1008"></path></svg>